<svg id="visual" viewBox="0 0 900 600" width="900" height="600" xmlns="http://www.w3.org/2000/svg" xmlns:xlink="http://www.w3.org/1999/xlink" version="1.1"><path d="M0 103L82 103L82 247L164 247L164 289L245 289L245 109L327 109L327 133L409 133L409 235L491 235L491 163L573 163L573 109L655 109L655 175L736 175L736 217L818 217L818 319L900 319L900 163L900 0L900 0L818 0L818 0L736 0L736 0L655 0L655 0L573 0L573 0L491 0L491 0L409 0L409 0L327 0L327 0L245 0L245 0L164 0L164 0L82 0L82 0L0 0Z" fill="#fa7268"></path><path d="M0 199L82 199L82 355L164 355L164 403L245 403L245 253L327 253L327 259L409 259L409 355L491 355L491 271L573 271L573 175L655 175L655 235L736 235L736 349L818 349L818 391L900 391L900 283L900 161L900 317L818 317L818 215L736 215L736 173L655 173L655 107L573 107L573 161L491 161L491 233L409 233L409 131L327 131L327 107L245 107L245 287L164 287L164 245L82 245L82 101L0 101Z" fill="#ea5e66"></path><path d="M0 469L82 469L82 451L164 451L164 499L245 499L245 481L327 481L327 439L409 439L409 439L491 439L491 391L573 391L573 433L655 433L655 457L736 457L736 457L818 457L818 493L900 493L900 469L900 281L900 389L818 389L818 347L736 347L736 233L655 233L655 173L573 173L573 269L491 269L491 353L409 353L409 257L327 257L327 251L245 251L245 401L164 401L164 353L82 353L82 197L0 197Z" fill="#d84a64"></path><path d="M0 529L82 529L82 529L164 529L164 565L245 565L245 559L327 559L327 499L409 499L409 511L491 511L491 499L573 499L573 499L655 499L655 523L736 523L736 541L818 541L818 535L900 535L900 529L900 467L900 491L818 491L818 455L736 455L736 455L655 455L655 431L573 431L573 389L491 389L491 437L409 437L409 437L327 437L327 479L245 479L245 497L164 497L164 449L82 449L82 467L0 467Z" fill="#c53762"></path><path d="M0 601L82 601L82 601L164 601L164 601L245 601L245 601L327 601L327 601L409 601L409 601L491 601L491 601L573 601L573 601L655 601L655 601L736 601L736 601L818 601L818 601L900 601L900 601L900 527L900 533L818 533L818 539L736 539L736 521L655 521L655 497L573 497L573 497L491 497L491 509L409 509L409 497L327 497L327 557L245 557L245 563L164 563L164 527L82 527L82 527L0 527Z" fill="#b0235f"></path></svg>